<svg xmlns="http://www.w3.org/2000/svg" viewBox="0 0 64 64" width="64" height="64">
  <!-- Sun -->
  <circle cx="32" cy="32" r="14" fill="#FFD700" />
  <g>
    <!-- Sun rays -->
    <line x1="32" y1="10" x2="32" y2="5" stroke="#FFD700" stroke-width="3" stroke-linecap="round" />
    <line x1="32" y1="59" x2="32" y2="54" stroke="#FFD700" stroke-width="3" stroke-linecap="round" />
    <line x1="10" y1="32" x2="5" y2="32" stroke="#FFD700" stroke-width="3" stroke-linecap="round" />
    <line x1="59" y1="32" x2="54" y2="32" stroke="#FFD700" stroke-width="3" stroke-linecap="round" />
    <line x1="17" y1="17" x2="13" y2="13" stroke="#FFD700" stroke-width="3" stroke-linecap="round" />
    <line x1="47" y1="47" x2="51" y2="51" stroke="#FFD700" stroke-width="3" stroke-linecap="round" />
    <line x1="17" y1="47" x2="13" y2="51" stroke="#FFD700" stroke-width="3" stroke-linecap="round" />
    <line x1="47" y1="17" x2="51" y2="13" stroke="#FFD700" stroke-width="3" stroke-linecap="round" />
  </g>
  
  <!-- Cloud -->
  <path d="M44,36c0-5.5-4.5-10-10-10c-4.4,0-8.1,2.8-9.5,6.7c-0.6-0.4-1.3-0.7-2-0.7c-2.2,0-4,1.8-4,4c0,0.4,0.1,0.7,0.2,1.1 C16.1,38.1,14,40.7,14,44c0,4.4,3.6,8,8,8h22c4.4,0,8-3.6,8-8C52,39.6,48.4,36,44,36z" fill="#ffffff" stroke="#3b82f6" stroke-width="2" />
</svg>